# xmcd CD database file
#
# Track frame offsets:
#	150
#	24447
#	43012
#	68605
#	105785
#
# Disc length: 4440 seconds
#
# Revision: 0
# Processed by: cddbd v1.5PL3 Copyright (c) Steve Scherf et al.
# Submitted via: CDex 1.51
#
DISCID=2f115605
DTITLE=Serani Poji - bomber minmi
DYEAR=2003
DGENRE=ゲーム
TTITLE0=ボンバーミンミ
TTITLE1=アイスクリスマス
TTITLE2=僕のマシュ…（gentle whisper）
TTITLE3=地球人のカラダ
TTITLE4=データ
EXTD=YEAR: 2003年12月3日
EXTT0=
EXTT1=
EXTT2=
EXTT3=
EXTT4=
PLAYORDER=
